<svg width="20" height="20" viewBox="0 0 20 20" fill="none" xmlns="http://www.w3.org/2000/svg">
              <path d="M9.27194 0.02655C11.567 -0.140987 13.8496 0.488115 15.7347 1.80775C17.6199 3.12738 18.9922 5.05679 19.6203 7.27055C20.2484 9.48431 20.0938 11.8469 19.1825 13.96C18.2713 16.073 16.6592 17.8071 14.6181 18.8698C12.5771 19.9325 10.232 20.2587 7.97834 19.7935C5.72472 19.3283 3.7005 18.1001 2.24709 16.3161C0.793683 14.532 3.26835e-05 12.3013 0 10.0002C-6.55625e-06 9.53991 0.373084 9.16681 0.833321 9.16681C1.29356 9.1668 1.66666 9.53989 1.66667 10.0001C1.66669 11.9177 2.32807 13.7767 3.53924 15.2634C4.75041 16.7501 6.43726 17.7736 8.31528 18.1613C10.1933 18.5489 12.1476 18.2771 13.8484 17.3915C15.5493 16.5059 16.8927 15.0608 17.6521 13.3C18.4115 11.5391 18.5403 9.57026 18.0169 7.72546C17.4935 5.88066 16.3499 4.27282 14.7789 3.17313C13.208 2.07343 11.3058 1.54918 9.39328 1.68879C7.7951 1.80546 6.27141 2.37973 4.99993 3.33337L6.49998 5.33343L0.499979 5.66677L2.49998 0.000101808L3.99993 2.00004C5.5257 0.855674 7.35413 0.16655 9.27194 0.02655Z" fill="#00204D" fill-opacity="0.6" style="mix-blend-mode:multiply" />
              <path d="M10 5.0001C10.4602 5.0001 10.8333 5.3732 10.8333 5.83343V9.65492L13.9226 12.7442C14.248 13.0696 14.248 13.5973 13.9226 13.9227C13.5971 14.2481 13.0695 14.2481 12.7441 13.9227L9.41074 10.5894C9.25446 10.4331 9.16666 10.2211 9.16666 10.0001V5.83343C9.16666 5.3732 9.53976 5.0001 10 5.0001Z" fill="#00204D" fill-opacity="0.6" style="mix-blend-mode:multiply" />
</svg>