<svg width="24" height="24" viewBox="0 0 24 24" fill="none" xmlns="http://www.w3.org/2000/svg">
              <path d="M21.535 11.0314C20.2527 9.21757 16.7559 5 12.0001 5C7.24426 5 3.75156 9.21757 2.46429 11.0322C2.16215 11.4615 2 11.9737 2 12.4986C2 13.0236 2.16215 13.5357 2.46429 13.965C3.75156 15.7797 7.24426 19.9973 12.0001 19.9973C16.7559 19.9973 20.2527 15.7797 21.5358 13.965C21.838 13.5356 22.0002 13.0232 22 12.4981C21.9999 11.973 21.8374 11.4607 21.535 11.0314ZM12.0001 16.6646C11.1761 16.6646 10.3707 16.4202 9.6856 15.9625C9.00052 15.5047 8.46657 14.8541 8.15126 14.0929C7.83595 13.3316 7.75345 12.494 7.9142 11.6859C8.07494 10.8778 8.4717 10.1355 9.05432 9.5529C9.63693 8.97028 10.3792 8.57352 11.1873 8.41278C11.9954 8.25203 12.8331 8.33453 13.5943 8.64984C14.3555 8.96515 15.0061 9.4991 15.4639 10.1842C15.9216 10.8693 16.166 11.6747 16.166 12.4986C16.166 13.6035 15.7271 14.6631 14.9458 15.4444C14.1645 16.2256 13.1049 16.6646 12.0001 16.6646Z" fill="#00204D" fill-opacity="0.6" style="mix-blend-mode:multiply" />
</svg>