<svg width="145" height="142" viewBox="0 0 145 142" fill="none" xmlns="http://www.w3.org/2000/svg">
              <path d="M106.33 47.53L94.9999 5.42997C94.7795 4.60908 94.3995 3.83966 93.8816 3.16567C93.3638 2.49168 92.7182 1.92634 91.9818 1.50194C91.2453 1.07755 90.4325 0.802412 89.5897 0.692259C88.7469 0.582106 87.8907 0.639094 87.0699 0.859968L5.06989 22.86C3.41126 23.3073 1.99814 24.395 1.14118 25.8839C0.284224 27.3728 0.0535562 29.1411 0.499887 30.8L11.8199 72.9C12.2652 74.5582 13.3504 75.9719 14.8373 76.8307C16.3241 77.6894 18.091 77.9229 19.7499 77.48L31.3199 74.37L47.2499 83.54L43.8599 71L101.76 55.44C103.412 54.9923 104.82 53.9092 105.676 52.4272C106.532 50.9453 106.767 49.1847 106.33 47.53Z" fill="#366AE2" />
              <path opacity="0.2" d="M106.33 47.53L94.9999 5.42997C94.7795 4.60908 94.3995 3.83966 93.8816 3.16567C93.3638 2.49168 92.7182 1.92634 91.9818 1.50194C91.2453 1.07755 90.4325 0.802412 89.5897 0.692259C88.7469 0.582106 87.8907 0.639094 87.0699 0.859968L5.06989 22.86C3.41126 23.3073 1.99814 24.395 1.14118 25.8839C0.284224 27.3728 0.0535562 29.1411 0.499887 30.8L11.8199 72.9C12.2652 74.5582 13.3504 75.9719 14.8373 76.8307C16.3241 77.6894 18.091 77.9229 19.7499 77.48L31.3199 74.37L47.2499 83.54L43.8599 71L101.76 55.44C103.412 54.9923 104.82 53.9092 105.676 52.4272C106.532 50.9453 106.767 49.1847 106.33 47.53Z" fill="black" />
              <path d="M139.74 135.68L144.12 107.18C144.293 106.058 144.012 104.914 143.341 103.999C142.669 103.083 141.662 102.472 140.54 102.3L85.0003 93.76C84.4446 93.6733 83.8773 93.6973 83.331 93.8305C82.7846 93.9636 82.2699 94.2034 81.8165 94.5361C81.363 94.8687 80.9798 95.2877 80.6887 95.7688C80.3976 96.25 80.2044 96.784 80.1203 97.34L75.7303 125.84C75.558 126.962 75.8383 128.106 76.5097 129.021C77.1811 129.937 78.1884 130.548 79.3103 130.72L87.1403 131.93L94.3303 141.73L95.6403 133.23L134.82 139.23C135.377 139.321 135.945 139.302 136.494 139.173C137.043 139.044 137.561 138.807 138.018 138.477C138.475 138.147 138.863 137.731 139.158 137.251C139.454 136.77 139.652 136.237 139.74 135.68Z" fill="#366AE2" />
              <path opacity="0.3" d="M139.74 135.68L144.12 107.18C144.293 106.058 144.012 104.914 143.341 103.999C142.669 103.083 141.662 102.472 140.54 102.3L85.0003 93.76C84.4446 93.6733 83.8773 93.6973 83.331 93.8305C82.7846 93.9636 82.2699 94.2034 81.8165 94.5361C81.363 94.8687 80.9798 95.2877 80.6887 95.7688C80.3976 96.25 80.2044 96.784 80.1203 97.34L75.7303 125.84C75.558 126.962 75.8383 128.106 76.5097 129.021C77.1811 129.937 78.1884 130.548 79.3103 130.72L87.1403 131.93L94.3303 141.73L95.6403 133.23L134.82 139.23C135.377 139.321 135.945 139.302 136.494 139.173C137.043 139.044 137.561 138.807 138.018 138.477C138.475 138.147 138.863 137.731 139.158 137.251C139.454 136.77 139.652 136.237 139.74 135.68Z" fill="white" />
              <path d="M137.77 89.48L130.63 38.48C130.347 36.4684 129.277 34.6514 127.655 33.4287C126.033 32.206 123.992 31.6777 121.98 31.96L22.57 45.86C20.5584 46.1426 18.7414 47.2126 17.5187 48.8348C16.296 50.4569 15.7676 52.4983 16.0499 54.51L23.19 105.51C23.3274 106.506 23.6602 107.465 24.1692 108.333C24.6782 109.2 25.3535 109.958 26.1562 110.564C26.9589 111.17 27.8733 111.611 28.8469 111.863C29.8205 112.114 30.8343 112.171 31.8299 112.03L45.8299 110.03L63.1799 123.12L61.0499 107.9L131.22 98.09C133.228 97.8117 135.044 96.7498 136.271 95.1364C137.499 93.5231 138.038 91.4894 137.77 89.48Z" fill="#366AE2" />
              <path d="M32.4297 68.2599L38.0597 67.4699L46.9097 77.2299L45.3997 66.4399L51.0797 65.6499L53.8097 85.1499L48.1297 85.9499L39.3297 76.2599L40.8297 86.9699L35.1597 87.7599L32.4297 68.2599Z" fill="white" />
              <path d="M55.0703 65.09L71.2303 62.83L71.8103 67L61.7003 68.41L62.1303 71.5099L71.5103 70.2L72.0703 74.2L62.6903 75.5099L63.2203 79.35L73.6303 77.8999L74.2503 82.3099L57.8003 84.61L55.0703 65.09Z" fill="white" />
              <path d="M72.7598 62.62L78.4798 61.8201L82.0698 72.45L83.5598 61.11L89.2598 60.31L93.8098 70.79L94.3498 59.6001L100.04 58.8L98.4698 78.91L92.5598 79.73L87.4198 67.93L85.7298 80.69L79.8198 81.51L72.7598 62.62Z" fill="white" />
              <path d="M102.78 71.72L108.47 70.56C108.625 71.3016 108.97 71.9905 109.47 72.56C109.844 72.9082 110.296 73.163 110.788 73.3037C111.279 73.4445 111.798 73.4672 112.3 73.37C113.021 73.3171 113.697 73.0002 114.2 72.48C114.391 72.2837 114.536 72.0472 114.624 71.7877C114.713 71.5282 114.742 71.2522 114.71 70.98C114.666 70.7202 114.567 70.4731 114.418 70.2555C114.27 70.038 114.076 69.8553 113.85 69.72C112.833 69.2554 111.728 69.0166 110.61 69.02C108.513 68.9737 106.457 68.4323 104.61 67.44C103.998 67.0574 103.481 66.5426 103.095 65.9334C102.709 65.3242 102.464 64.6362 102.38 63.92C102.235 62.8945 102.402 61.8491 102.86 60.92C103.373 59.8865 104.18 59.0273 105.18 58.45C106.632 57.6656 108.227 57.1795 109.87 57.02C111.851 56.6157 113.908 56.8214 115.77 57.61C116.527 58.041 117.183 58.6304 117.692 59.338C118.201 60.0455 118.552 60.8546 118.72 61.71L113.09 62.84C112.911 62.1164 112.478 61.4812 111.87 61.05C111.23 60.7065 110.492 60.5935 109.78 60.73C109.21 60.767 108.671 61.0043 108.26 61.4C108.112 61.5517 108.001 61.735 107.936 61.936C107.87 62.137 107.851 62.3504 107.88 62.56C107.908 62.7239 107.973 62.8792 108.07 63.0143C108.167 63.1494 108.293 63.2607 108.44 63.34C109.107 63.6347 109.83 63.7815 110.56 63.77C112.556 63.8495 114.536 64.1616 116.46 64.7C117.541 65.0346 118.508 65.665 119.25 66.52C119.893 67.3192 120.302 68.2818 120.43 69.3C120.61 70.528 120.418 71.7817 119.88 72.9C119.321 74.0681 118.431 75.0456 117.32 75.71C115.907 76.5103 114.345 77.0107 112.73 77.18C109.396 77.6466 107.01 77.3133 105.57 76.18C104.144 75.0675 103.156 73.4884 102.78 71.72Z" fill="white" />
</svg>