<svg width="500" height="500" viewBox="0 0 500 500" fill="none" xmlns="http://www.w3.org/2000/svg">
              <path d="M250 436.56C357.083 436.56 443.89 431.492 443.89 425.24C443.89 418.988 357.083 413.92 250 413.92C142.918 413.92 56.1104 418.988 56.1104 425.24C56.1104 431.492 142.918 436.56 250 436.56Z" fill="#F5F5F5" />
              <path d="M48.8604 159.56L276.83 192.38L307.42 223.25L48.8604 159.56Z" fill="#366AE2" />
              <path opacity="0.6" d="M48.8604 159.56L276.83 192.38L307.42 223.25L48.8604 159.56Z" fill="white" />
              <path d="M48.8604 159.56L276.83 192.38L266.25 237.02L48.8604 159.56Z" fill="#366AE2" />
              <path opacity="0.2" d="M48.8604 159.56L276.83 192.38L266.25 237.02L48.8604 159.56Z" fill="black" />
              <path d="M261.57 107.88L274.8 169.88C275.144 171.499 274.832 173.188 273.932 174.578C273.032 175.967 271.618 176.942 270 177.29L151.92 202.49C150.301 202.831 148.613 202.518 147.225 201.619C145.836 200.719 144.86 199.307 144.51 197.69L131.27 135.69C130.929 134.07 131.244 132.381 132.145 130.992C133.046 129.603 134.461 128.628 136.08 128.28L254.16 103.08C255.78 102.739 257.47 103.053 258.858 103.955C260.247 104.856 261.222 106.271 261.57 107.89V107.88Z" fill="#366AE2" />
              <path opacity="0.4" d="M261.57 107.88L274.8 169.88C275.144 171.499 274.832 173.188 273.932 174.578C273.032 175.967 271.618 176.942 270 177.29L151.92 202.49C150.301 202.831 148.613 202.518 147.225 201.619C145.836 200.719 144.86 199.307 144.51 197.69L131.27 135.69C130.929 134.07 131.244 132.381 132.145 130.992C133.046 129.603 134.461 128.628 136.08 128.28L254.16 103.08C255.78 102.739 257.47 103.053 258.858 103.955C260.247 104.856 261.222 106.271 261.57 107.89V107.88Z" fill="black" />
              <path d="M258.661 103.82L219.211 152.25C215.552 156.74 210.47 159.847 204.806 161.056C199.141 162.265 193.234 161.505 188.061 158.9L132.271 130.8C133.173 129.503 134.535 128.599 136.081 128.27L254.161 103.07C255.701 102.742 257.309 103.01 258.661 103.82Z" fill="#366AE2" />
              <path d="M48.8604 159.56L236.89 204.25L266.25 237.02L48.8604 159.56Z" fill="#366AE2" />
              <path opacity="0.6" d="M48.8604 159.56L236.89 204.25L266.25 237.02L48.8604 159.56Z" fill="white" />
              <path d="M117.45 202.635L116.944 203.498L137.869 215.755L138.374 214.892L117.45 202.635Z" fill="#366AE2" />
              <path d="M147.612 220.296L147.106 221.158L154.631 225.566L155.136 224.703L147.612 220.296Z" fill="#366AE2" />
              <path d="M48.8604 159.56L236.89 204.25L200.34 248.3L48.8604 159.56Z" fill="#366AE2" />
              <path d="M300.361 264.26C300.107 264.261 299.856 264.213 299.621 264.12L269.001 252C268.511 251.803 268.119 251.419 267.91 250.934C267.702 250.449 267.694 249.901 267.888 249.41C268.082 248.919 268.463 248.524 268.946 248.312C269.43 248.101 269.978 248.089 270.471 248.28L301.101 260.4C301.534 260.571 301.894 260.888 302.118 261.297C302.343 261.705 302.418 262.179 302.33 262.636C302.242 263.094 301.997 263.507 301.638 263.803C301.278 264.099 300.827 264.261 300.361 264.26Z" fill="#366AE2" />
              <path opacity="0.3" d="M300.361 264.26C300.107 264.261 299.856 264.213 299.621 264.12L269.001 252C268.511 251.803 268.119 251.419 267.91 250.934C267.702 250.449 267.694 249.901 267.888 249.41C268.082 248.919 268.463 248.524 268.946 248.312C269.43 248.101 269.978 248.089 270.471 248.28L301.101 260.4C301.534 260.571 301.894 260.888 302.118 261.297C302.343 261.705 302.418 262.179 302.33 262.636C302.242 263.094 301.997 263.507 301.638 263.803C301.278 264.099 300.827 264.261 300.361 264.26Z" fill="black" />
              <path d="M298.55 246.7C298.299 246.698 298.051 246.647 297.82 246.55L281.37 240C281.124 239.905 280.9 239.762 280.709 239.579C280.519 239.397 280.366 239.178 280.26 238.937C280.155 238.695 280.098 238.435 280.093 238.171C280.088 237.907 280.136 237.645 280.233 237.4C280.33 237.155 280.474 236.931 280.658 236.742C280.842 236.553 281.061 236.402 281.303 236.297C281.546 236.193 281.806 236.138 282.07 236.135C282.334 236.132 282.595 236.181 282.84 236.28L299.29 242.8C299.783 242.994 300.179 243.376 300.391 243.861C300.603 244.347 300.613 244.897 300.42 245.39C300.279 245.773 300.025 246.104 299.69 246.338C299.356 246.572 298.958 246.698 298.55 246.7Z" fill="#366AE2" />
              <path opacity="0.5" d="M298.55 246.7C298.299 246.698 298.051 246.647 297.82 246.55L281.37 240C281.124 239.905 280.9 239.762 280.709 239.579C280.519 239.397 280.366 239.178 280.26 238.937C280.155 238.695 280.098 238.435 280.093 238.171C280.088 237.907 280.136 237.645 280.233 237.4C280.33 237.155 280.474 236.931 280.658 236.742C280.842 236.553 281.061 236.402 281.303 236.297C281.546 236.193 281.806 236.138 282.07 236.135C282.334 236.132 282.595 236.181 282.84 236.28L299.29 242.8C299.783 242.994 300.179 243.376 300.391 243.861C300.603 244.347 300.613 244.897 300.42 245.39C300.279 245.773 300.025 246.104 299.69 246.338C299.356 246.572 298.958 246.698 298.55 246.7Z" fill="white" />
              <path d="M264.161 264C263.911 263.997 263.664 263.95 263.431 263.86L233.561 252C233.315 251.905 233.09 251.762 232.899 251.579C232.709 251.397 232.557 251.178 232.451 250.937C232.345 250.695 232.288 250.435 232.284 250.171C232.279 249.907 232.326 249.645 232.423 249.4C232.52 249.155 232.665 248.931 232.848 248.742C233.032 248.553 233.251 248.402 233.494 248.297C233.736 248.193 233.997 248.138 234.26 248.135C234.524 248.132 234.786 248.181 235.031 248.28L264.901 260.1C265.334 260.271 265.694 260.588 265.918 260.997C266.143 261.405 266.217 261.879 266.13 262.336C266.042 262.794 265.797 263.207 265.438 263.503C265.078 263.799 264.626 263.961 264.161 263.96V264Z" fill="#366AE2" />
              <path opacity="0.3" d="M264.161 264C263.911 263.997 263.664 263.95 263.431 263.86L233.561 252C233.315 251.905 233.09 251.762 232.899 251.579C232.709 251.397 232.557 251.178 232.451 250.937C232.345 250.695 232.288 250.435 232.284 250.171C232.279 249.907 232.326 249.645 232.423 249.4C232.52 249.155 232.665 248.931 232.848 248.742C233.032 248.553 233.251 248.402 233.494 248.297C233.736 248.193 233.997 248.138 234.26 248.135C234.524 248.132 234.786 248.181 235.031 248.28L264.901 260.1C265.334 260.271 265.694 260.588 265.918 260.997C266.143 261.405 266.217 261.879 266.13 262.336C266.042 262.794 265.797 263.207 265.438 263.503C265.078 263.799 264.626 263.961 264.161 263.96V264Z" fill="black" />
              <path d="M372.3 173.82C374.95 178.99 377.38 184.17 379.69 189.47C382 194.77 384.15 200.14 386.03 205.77L386.71 207.9C386.83 208.28 387 208.9 387.1 209.34C387.2 209.78 387.29 210.28 387.34 210.7C387.569 212.313 387.686 213.941 387.69 215.57C387.705 218.575 387.565 221.579 387.27 224.57C386.711 230.36 385.803 236.11 384.55 241.79L379.06 241.18C378.99 235.55 378.94 229.86 378.74 224.31C378.65 221.55 378.49 218.78 378.21 216.18C378.083 214.959 377.883 213.747 377.61 212.55C377.56 212.27 377.48 212.06 377.42 211.83C377.36 211.6 377.3 211.52 377.2 211.22L376.44 209.33C374.35 204.27 372 199.17 369.6 194.09L362.34 178.85L372.3 173.82Z" fill="#E4897B" />
              <path d="M379.14 239.42L376.58 244.21L384.76 246.49C384.76 246.49 386.32 242.64 384.46 239.6L379.14 239.42Z" fill="#E4897B" />
              <path d="M373.45 251.11L380.97 251.71L384.76 246.49L376.58 244.21L373.45 251.11Z" fill="#E4897B" />
              <path d="M337.87 139.26C337.76 139.85 337.35 140.26 336.97 140.18C336.59 140.1 336.38 139.57 336.5 138.99C336.62 138.41 337.02 137.99 337.4 138.07C337.78 138.15 338 138.68 337.87 139.26Z" fill="#263238" />
              <path d="M337.41 140.26C336.354 141.896 335.079 143.38 333.62 144.67C333.961 145.032 334.376 145.316 334.837 145.503C335.298 145.689 335.793 145.774 336.29 145.75L337.41 140.26Z" fill="#DE5753" />
              <path d="M340.65 136.47C340.556 136.468 340.466 136.428 340.4 136.36C340.113 136.032 339.752 135.775 339.347 135.612C338.943 135.449 338.505 135.383 338.07 135.42C337.987 135.421 337.907 135.392 337.843 135.339C337.779 135.286 337.737 135.213 337.722 135.131C337.708 135.049 337.723 134.965 337.765 134.894C337.806 134.822 337.872 134.768 337.95 134.74C338.506 134.67 339.071 134.738 339.595 134.938C340.118 135.139 340.584 135.466 340.95 135.89C341.014 135.956 341.05 136.043 341.05 136.135C341.05 136.227 341.014 136.315 340.95 136.38C340.91 136.417 340.862 136.444 340.811 136.459C340.759 136.475 340.704 136.479 340.65 136.47Z" fill="#263238" />
              <path d="M354.41 147.43C353.36 152.81 352.31 162.65 356.07 166.24C356.07 166.24 354.6 171.69 344.61 171.69C333.61 171.69 339.37 166.24 339.37 166.24C345.37 164.81 345.2 160.36 344.16 156.19L354.41 147.43Z" fill="#E4897B" />
              <path d="M357.58 169.63C358.37 167 359.24 163.99 357.44 163.04C355.44 162.04 344.57 160.94 340.82 162.89C337.07 164.84 338.14 170.19 338.14 170.19L357.58 169.63Z" fill="#263238" />
              <path d="M380.64 419C380.329 419.041 380.014 419.02 379.712 418.938C379.409 418.855 379.127 418.713 378.88 418.52C378.793 418.399 378.746 418.254 378.746 418.105C378.746 417.956 378.793 417.811 378.88 417.69C378.937 417.586 379.016 417.496 379.111 417.425C379.206 417.355 379.314 417.305 379.43 417.28C380.51 417.04 382.53 418.42 382.62 418.48C382.646 418.502 382.666 418.529 382.678 418.561C382.69 418.592 382.694 418.626 382.69 418.66C382.684 418.692 382.669 418.722 382.646 418.745C382.622 418.769 382.592 418.784 382.56 418.79C381.929 418.926 381.286 418.996 380.64 419ZM379.72 417.6H379.51C379.442 417.614 379.378 417.643 379.323 417.684C379.268 417.726 379.222 417.779 379.19 417.84C379.03 418.12 379.13 418.24 379.19 418.28C379.5 418.7 381 418.7 382.1 418.52C381.383 418.047 380.57 417.739 379.72 417.62V417.6Z" fill="#366AE2" />
              <path d="M382.52 418.82H382.44C381.68 418.4 380.21 416.82 380.36 415.98C380.386 415.85 380.456 415.733 380.558 415.649C380.66 415.566 380.788 415.52 380.92 415.52C381.052 415.506 381.185 415.518 381.312 415.556C381.439 415.593 381.558 415.656 381.66 415.74C382.51 416.44 382.66 418.56 382.66 418.65C382.664 418.682 382.659 418.714 382.645 418.742C382.63 418.771 382.608 418.794 382.58 418.81C382.561 418.818 382.541 418.821 382.52 418.82ZM381.04 415.82H381C380.77 415.82 380.75 415.96 380.74 416C380.65 416.49 381.59 417.7 382.34 418.27C382.29 417.435 381.99 416.633 381.48 415.97C381.413 415.917 381.336 415.879 381.253 415.856C381.171 415.834 381.085 415.828 381 415.84L381.04 415.82Z" fill="#366AE2" />
              <path d="M336.53 419C335.59 419 334.68 418.87 334.37 418.45C334.292 418.339 334.25 418.206 334.25 418.07C334.25 417.934 334.292 417.801 334.37 417.69C334.431 417.587 334.512 417.498 334.608 417.427C334.705 417.357 334.814 417.307 334.93 417.28C336.14 416.95 338.72 418.41 338.83 418.47C338.86 418.489 338.883 418.516 338.897 418.548C338.911 418.58 338.916 418.615 338.91 418.65C338.905 418.685 338.888 418.717 338.863 418.742C338.838 418.768 338.805 418.784 338.77 418.79C338.032 418.929 337.282 418.999 336.53 419ZM335.36 417.58C335.251 417.564 335.14 417.564 335.03 417.58C334.96 417.594 334.893 417.622 334.835 417.664C334.776 417.705 334.727 417.758 334.69 417.82C334.56 418.04 334.61 418.14 334.69 418.2C335.02 418.66 336.88 418.69 338.26 418.5C337.361 418.015 336.376 417.709 335.36 417.6V417.58Z" fill="#366AE2" />
              <path d="M338.75 418.82H338.68C337.79 418.43 336.04 416.82 336.17 416.01C336.17 415.81 336.34 415.57 336.82 415.52C336.998 415.493 337.181 415.506 337.354 415.558C337.527 415.609 337.686 415.699 337.82 415.82C338.76 416.58 338.95 418.56 338.96 418.65C338.964 418.68 338.959 418.711 338.947 418.74C338.935 418.768 338.915 418.792 338.89 418.81C338.869 418.821 338.845 418.828 338.821 418.83C338.797 418.832 338.773 418.828 338.75 418.82ZM336.96 415.82H336.85C336.54 415.82 336.52 415.98 336.51 416.02C336.43 416.52 337.63 417.77 338.51 418.31C338.424 417.47 338.073 416.679 337.51 416.05C337.367 415.926 337.188 415.853 337 415.84L336.96 415.82Z" fill="#366AE2" />
              <path d="M346.83 418.64H339.48L338.75 401.63H346.1L346.83 418.64Z" fill="#E4897B" />
              <path d="M390.94 418.64H383.59L379.9 401.63H387.24L390.94 418.64Z" fill="#E4897B" />
              <path d="M383.07 417.79H391.32C391.468 417.791 391.61 417.842 391.725 417.935C391.839 418.027 391.919 418.156 391.95 418.3L393.4 424.83C393.434 424.989 393.43 425.153 393.391 425.311C393.352 425.469 393.278 425.615 393.174 425.74C393.07 425.865 392.939 425.965 392.792 426.033C392.644 426.1 392.483 426.133 392.32 426.13C389.44 426.08 388.04 425.91 384.41 425.91C382.18 425.91 377.58 426.15 374.49 426.15C371.4 426.15 371.01 423.15 372.27 422.82C377.93 421.58 380.06 419.87 381.87 418.25C382.199 417.953 382.627 417.789 383.07 417.79Z" fill="#263238" />
              <path d="M339.53 417.79H347.53C347.677 417.791 347.82 417.842 347.934 417.935C348.049 418.027 348.128 418.156 348.16 418.3L349.61 424.83C349.645 424.988 349.643 425.151 349.606 425.308C349.568 425.465 349.496 425.611 349.394 425.736C349.292 425.861 349.163 425.962 349.017 426.03C348.871 426.098 348.711 426.132 348.55 426.13C345.66 426.08 341.48 425.91 337.84 425.91C333.59 425.91 329.91 426.15 324.92 426.15C321.92 426.15 321.07 423.15 322.33 422.82C328.08 421.56 332.77 421.43 337.74 418.37C338.269 418.01 338.89 417.809 339.53 417.79Z" fill="#263238" />
              <path d="M336 179.14C329.857 178.664 323.745 177.853 317.69 176.71C314.69 176.13 311.63 175.48 308.59 174.66C305.474 173.863 302.414 172.86 299.43 171.66C298.66 171.34 297.88 170.99 297.11 170.66C296.244 170.233 295.408 169.745 294.61 169.2C293.17 168.25 291.93 167.26 290.7 166.28C288.25 164.28 285.98 162.28 283.7 160.23C279.23 156.09 274.99 151.81 270.9 147.31L274.58 143.2L289.09 153.63C291.48 155.35 293.9 157.04 296.28 158.63C297.46 159.42 298.67 160.16 299.78 160.79C300.244 161.055 300.726 161.289 301.22 161.49C301.81 161.72 302.41 161.95 303.04 162.17C308.445 163.834 313.972 165.071 319.57 165.87C325.28 166.77 331.18 167.51 336.88 168.11L336 179.14Z" fill="#E4897B" />
              <path d="M369.221 167.9C376.111 169.48 383.071 189.61 383.071 189.61L368.901 199.78C368.901 199.78 364.901 190.4 361.041 182.2C357.001 173.61 362.181 166.29 369.221 167.9Z" fill="#366AE2" />
              <path opacity="0.4" d="M369.221 167.9C376.111 169.48 383.071 189.61 383.071 189.61L368.901 199.78C368.901 199.78 364.901 190.4 361.041 182.2C357.001 173.61 362.181 166.29 369.221 167.9Z" fill="black" />
              <path d="M365.25 178.9L362.44 185.19C365.35 191.47 368.01 197.69 368.72 199.35C368.62 191.92 367.21 182.7 365.25 178.9Z" fill="#366AE2" />
              <path opacity="0.6" d="M365.25 178.9L362.44 185.19C365.35 191.47 368.01 197.69 368.72 199.35C368.62 191.92 367.21 182.7 365.25 178.9Z" fill="black" />
              <path d="M328.07 168.28C328.07 168.28 320.25 177.11 327.63 231.78H366.92C367.2 225.78 363.41 196.32 369.22 167.9C364.877 167.064 360.484 166.509 356.07 166.24C350.508 165.92 344.932 165.92 339.37 166.24C335.556 166.624 331.777 167.306 328.07 168.28Z" fill="#366AE2" />
              <path opacity="0.4" d="M328.07 168.28C328.07 168.28 320.25 177.11 327.63 231.78H366.92C367.2 225.78 363.41 196.32 369.22 167.9C364.877 167.064 360.484 166.509 356.07 166.24C350.508 165.92 344.932 165.92 339.37 166.24C335.556 166.624 331.777 167.306 328.07 168.28Z" fill="black" />
              <path d="M325.16 178.9C324.9 180.97 324.7 183.42 324.57 186.31C328.45 185.145 332.137 183.413 335.51 181.17L325.16 178.9Z" fill="#366AE2" />
              <path opacity="0.6" d="M325.16 178.9C324.9 180.97 324.7 183.42 324.57 186.31C328.45 185.145 332.137 183.413 335.51 181.17L325.16 178.9Z" fill="black" />
              <path d="M342 180C336.74 184.66 316.66 184.19 316.66 184.19L316 164.75C322.781 165.716 329.621 166.21 336.47 166.23C347.66 166 347.74 174.86 342 180Z" fill="#366AE2" />
              <path opacity="0.4" d="M342 180C336.74 184.66 316.66 184.19 316.66 184.19L316 164.75C322.781 165.716 329.621 166.21 336.47 166.23C347.66 166 347.74 174.86 342 180Z" fill="black" />
              <path d="M274.77 143.24L269.77 137.35L264.38 143.35C264.38 143.35 267.7 148.93 272.97 148.05L274.77 143.24Z" fill="#E4897B" />
              <path d="M262.61 130.48L260.67 138.17L264.34 143.31L269.73 137.35L262.61 130.48Z" fill="#E4897B" />
              <path d="M338.75 401.64L339.13 410.4H346.48L346.1 401.64H338.75Z" fill="#CE6F64" />
              <path d="M387.25 401.64H379.9L381.8 410.4H389.15L387.25 401.64Z" fill="#CE6F64" />
              <path d="M343.17 132C336.58 129 334.5 115.67 353.46 119C353.46 119 350.6 122.16 356.4 124.16C362.2 126.16 357.35 138.51 343.17 132Z" fill="#263238" />
              <path d="M357.49 142C355.6 149 354.86 153.26 350.49 156.19C343.95 160.59 335.82 155.54 335.56 148.07C335.33 141.36 338.46 130.97 346.01 129.55C347.676 129.223 349.399 129.329 351.013 129.857C352.627 130.385 354.078 131.318 355.23 132.566C356.381 133.815 357.193 135.337 357.589 136.989C357.984 138.64 357.95 140.366 357.49 142Z" fill="#E4897B" />
              <path d="M353.2 122.5C357.69 125 363.77 126.5 363.2 130.06C362.45 134.41 366.87 131.69 365.84 138.16C365.17 142.39 357.37 155.21 351.84 154.59C343.58 153.59 344.63 141.03 344.6 134.41C344.58 130.5 344.4 117.57 353.2 122.5Z" fill="#263238" />
              <path d="M343.61 128.11C341.61 128.58 338.96 140.11 346.71 141.17C355.62 142.38 343.61 128.11 343.61 128.11Z" fill="#263238" />
              <path d="M343.81 132.2C341.36 132.42 335.81 129.47 336.49 125.03C336.49 125 340 130.22 343.81 132.2Z" fill="#263238" />
              <path d="M347.45 142.09C346.698 143.739 345.422 145.093 343.82 145.94C341.71 147.04 340.52 145.44 341 143.32C341.43 141.42 343.05 138.55 345.22 138.32C347.39 138.09 348.32 140.09 347.45 142.09Z" fill="#E4897B" />
              <path d="M358.45 134C359.945 133.352 361.255 132.342 362.264 131.063C363.272 129.784 363.948 128.275 364.23 126.67C364.23 126.67 367.53 135.84 358.45 134Z" fill="#263238" />
              <path d="M366.79 133.85C366.094 133.383 365.293 133.095 364.459 133.013C363.625 132.931 362.783 133.057 362.01 133.38C362.01 133.38 365.09 129.39 366.79 133.85Z" fill="#263238" />
              <path d="M341.57 231.78C341.57 231.78 349.91 287.92 354.48 308.95C359.48 331.95 378.38 408.71 378.38 408.71H391.83C391.83 408.71 379.38 333.84 376.52 311C373.42 286.25 366.92 231.74 366.92 231.74L341.57 231.78Z" fill="#366AE2" />
              <path opacity="0.5" d="M341.57 231.78C341.57 231.78 349.91 287.92 354.48 308.95C359.48 331.95 378.38 408.71 378.38 408.71H391.83C391.83 408.71 379.38 333.84 376.52 311C373.42 286.25 366.92 231.74 366.92 231.74L341.57 231.78Z" fill="white" />
              <path d="M376.23 403.75C376.17 403.75 377.62 408.92 377.62 408.92H392.76L392.48 404.31L376.23 403.75Z" fill="#366AE2" />
              <path opacity="0.1" d="M376.23 403.75C376.17 403.75 377.62 408.92 377.62 408.92H392.76L392.48 404.31L376.23 403.75Z" fill="black" />
              <path d="M346.84 251.78C356.48 253.67 355.46 289.62 354.3 308.11C351.52 295.04 347.45 269.89 344.67 252.04C345.342 251.709 346.108 251.617 346.84 251.78Z" fill="#366AE2" />
              <path opacity="0.4" d="M346.84 251.78C356.48 253.67 355.46 289.62 354.3 308.11C351.52 295.04 347.45 269.89 344.67 252.04C345.342 251.709 346.108 251.617 346.84 251.78Z" fill="white" />
              <path d="M327.63 231.78C327.63 231.78 326.63 286.7 327.42 309.11C328.25 332.41 336.42 408.71 336.42 408.71H348.86C348.86 408.71 349.32 333.77 349.86 310.89C350.47 285.94 353.48 231.78 353.48 231.78H327.63Z" fill="#366AE2" />
              <path opacity="0.5" d="M327.63 231.78C327.63 231.78 326.63 286.7 327.42 309.11C328.25 332.41 336.42 408.71 336.42 408.71H348.86C348.86 408.71 349.32 333.77 349.86 310.89C350.47 285.94 353.48 231.78 353.48 231.78H327.63Z" fill="white" />
              <path d="M339 399.77C338.97 399.77 338.941 399.759 338.919 399.739C338.896 399.718 338.883 399.69 338.88 399.66C336.68 378.54 331.51 327.44 330.88 309.11C330.21 290.4 330.82 248.42 331.02 236C331.02 235.968 331.033 235.938 331.055 235.915C331.078 235.893 331.108 235.88 331.14 235.88C331.173 235.88 331.205 235.892 331.229 235.915C331.253 235.937 331.268 235.967 331.27 236C331.07 248.42 330.46 290.4 331.13 309.1C331.78 327.43 336.95 378.51 339.13 399.63C339.131 399.664 339.119 399.697 339.096 399.723C339.074 399.748 339.044 399.765 339.01 399.77H339Z" fill="#366AE2" />
              <path opacity="0.4" d="M339 399.77C338.97 399.77 338.941 399.759 338.919 399.739C338.896 399.718 338.883 399.69 338.88 399.66C336.68 378.54 331.51 327.44 330.88 309.11C330.21 290.4 330.82 248.42 331.02 236C331.02 235.968 331.033 235.938 331.055 235.915C331.078 235.893 331.108 235.88 331.14 235.88C331.173 235.88 331.205 235.892 331.229 235.915C331.253 235.937 331.268 235.967 331.27 236C331.07 248.42 330.46 290.4 331.13 309.1C331.78 327.43 336.95 378.51 339.13 399.63C339.131 399.664 339.119 399.697 339.096 399.723C339.074 399.748 339.044 399.765 339.01 399.77H339Z" fill="white" />
              <path d="M334 403.75C333.95 403.75 334.71 408.92 334.71 408.92H349.84L350.25 404.31L334 403.75Z" fill="#366AE2" />
              <path opacity="0.1" d="M334 403.75C333.95 403.75 334.71 408.92 334.71 408.92H349.84L350.25 404.31L334 403.75Z" fill="black" />
</svg>
